{
	"asset":{
		"generator":"Khronos glTF Blender I/O v3.5.30",
		"version":"2.0"
	},
	"extensionsUsed":[
		"KHR_lights_punctual",
		"KHR_materials_transmission",
		"KHR_materials_ior"
	],
	"extensionsRequired":[
		"KHR_lights_punctual"
	],
	"extensions":{
		"KHR_lights_punctual":{
			"lights":[
				{
					"color":[
						1,
						1,
						1
					],
					"intensity":54351.41306588226,
					"type":"point",
					"name":"Light"
				},
				{
					"color":[
						1,
						1,
						1
					],
					"intensity":54351.41306588226,
					"type":"point",
					"name":"Light.001"
				},
				{
					"color":[
						1,
						1,
						1
					],
					"intensity":54351.41306588226,
					"type":"point",
					"name":"Light.002"
				},
				{
					"color":[
						1,
						1,
						1
					],
					"intensity":54351.41306588226,
					"type":"point",
					"name":"Light.003"
				},
				{
					"color":[
						1,
						1,
						1
					],
					"intensity":54351.41306588226,
					"type":"point",
					"name":"Light.004"
				},
				{
					"color":[
						1,
						1,
						1
					],
					"intensity":543514.1306588226,
					"type":"point",
					"name":"Light.005"
				},
				{
					"color":[
						1,
						1,
						1
					],
					"intensity":54351.41306588226,
					"type":"point",
					"name":"Light.006"
				},
				{
					"color":[
						1,
						1,
						1
					],
					"intensity":54351.41306588226,
					"type":"point",
					"name":"Light.007"
				},
				{
					"color":[
						1,
						1,
						1
					],
					"intensity":54351.41306588226,
					"type":"point",
					"name":"Light.008"
				},
				{
					"color":[
						1,
						1,
						1
					],
					"intensity":54351.41306588226,
					"type":"point",
					"name":"Light.009"
				},
				{
					"color":[
						1,
						1,
						1
					],
					"intensity":54351.41306588226,
					"type":"point",
					"name":"Light.010"
				},
				{
					"color":[
						1,
						1,
						1
					],
					"intensity":54351.41306588226,
					"type":"point",
					"name":"Light.011"
				},
				{
					"color":[
						1,
						1,
						1
					],
					"intensity":54351.41306588226,
					"type":"point",
					"name":"Light.012"
				},
				{
					"color":[
						1,
						1,
						1
					],
					"intensity":54351.41306588226,
					"type":"point",
					"name":"Light.013"
				},
				{
					"color":[
						1,
						1,
						1
					],
					"intensity":54351.41306588226,
					"type":"point",
					"name":"Light.014"
				},
				{
					"color":[
						1,
						1,
						1
					],
					"intensity":54351.41306588226,
					"type":"point",
					"name":"Light.015"
				}
			]
		}
	},
	"scene":0,
	"scenes":[
		{
			"extras":{
				"remesher":0,
				"deterministic":0,
				"dominant":0,
				"boundaries":0,
				"uuid":"f0f1be22-c91b-4938-ba8a-6b5d4fde0125",
				"assets reported":{},
				"bsurfaces":{
					"SURFSK_mesh":{}
				}
			},
			"name":"Scene",
			"nodes":[
				0,
				1,
				2,
				3,
				4,
				5,
				6,
				7,
				8,
				9,
				10,
				11,
				12,
				13,
				14,
				15,
				16,
				17,
				18,
				19,
				20
			]
		}
	],
	"nodes":[
		{
			"extras":{
				"ant_landscape":{}
			},
			"mesh":0,
			"name":"remeshed_joined",
			"rotation":[
				0.7071068286895752,
				0,
				0,
				0.7071068286895752
			]
		},
		{
			"extras":{
				"ant_landscape":{}
			},
			"mesh":1,
			"name":"shirt_base",
			"scale":[
				0.5388562083244324,
				0.8187790513038635,
				0.8187790513038635
			],
			"translation":[
				-0.12244121730327606,
				-2.0106818675994873,
				0
			]
		},
		{
			"mesh":2,
			"name":"pants_jogging",
			"scale":[
				0.4881678521633148,
				0.5117413401603699,
				0.4881678521633148
			],
			"translation":[
				0,
				-2.8027241230010986,
				0
			]
		},
		{
			"extras":{
				"ant_landscape":{}
			},
			"mesh":3,
			"name":"hair_midlength",
			"scale":[
				1.1045958995819092,
				1.1045958995819092,
				1.1045958995819092
			],
			"translation":[
				0,
				0.2892959713935852,
				0
			]
		},
		{
			"extensions":{
				"KHR_lights_punctual":{
					"light":0
				}
			},
			"name":"Light",
			"rotation":[
				-0.28416627645492554,
				0.7269423007965088,
				0.34203392267227173,
				0.5232754945755005
			],
			"translation":[
				8.554094314575195,
				-3.8057727813720703,
				-4.359703063964844
			]
		},
		{
			"extensions":{
				"KHR_lights_punctual":{
					"light":1
				}
			},
			"name":"Light.001",
			"rotation":[
				-0.28416627645492554,
				0.7269423007965088,
				0.34203392267227173,
				0.5232754945755005
			],
			"translation":[
				4.6931657791137695,
				3.229034662246704,
				-6.090375900268555
			]
		},
		{
			"extensions":{
				"KHR_lights_punctual":{
					"light":2
				}
			},
			"extras":{
				"ant_landscape":{}
			},
			"name":"Light.002",
			"rotation":[
				-0.28416627645492554,
				0.7269423007965088,
				0.34203392267227173,
				0.5232754945755005
			],
			"translation":[
				4.09508752822876,
				-0.5318321585655212,
				5.19749641418457
			]
		},
		{
			"extensions":{
				"KHR_lights_punctual":{
					"light":3
				}
			},
			"name":"Light.003",
			"rotation":[
				-0.28416627645492554,
				0.7269423007965088,
				0.34203392267227173,
				0.5232754945755005
			],
			"translation":[
				0.9559332132339478,
				0.8397159576416016,
				-8.186383247375488
			]
		},
		{
			"extensions":{
				"KHR_lights_punctual":{
					"light":4
				}
			},
			"name":"Light.004",
			"rotation":[
				-0.28416627645492554,
				0.7269423007965088,
				0.34203392267227173,
				0.5232754945755005
			],
			"translation":[
				-0.33927249908447266,
				7.157198905944824,
				-6.131356716156006
			]
		},
		{
			"extensions":{
				"KHR_lights_punctual":{
					"light":5
				}
			},
			"name":"Light.005",
			"rotation":[
				-0.28416627645492554,
				0.7269423007965088,
				0.34203392267227173,
				0.5232754945755005
			],
			"translation":[
				-5.4106645584106445,
				2.569096565246582,
				0.9483218193054199
			]
		},
		{
			"extensions":{
				"KHR_lights_punctual":{
					"light":6
				}
			},
			"name":"Light.006",
			"rotation":[
				-0.28416627645492554,
				0.7269423007965088,
				0.34203392267227173,
				0.5232754945755005
			],
			"translation":[
				10.042279243469238,
				-3.3421075344085693,
				5.1353607177734375
			]
		},
		{
			"extensions":{
				"KHR_lights_punctual":{
					"light":7
				}
			},
			"name":"Light.007",
			"rotation":[
				-0.28416627645492554,
				0.7269423007965088,
				0.34203392267227173,
				0.5232754945755005
			],
			"translation":[
				-5.239213466644287,
				0.10648417472839355,
				-2.9216270446777344
			]
		},
		{
			"extensions":{
				"KHR_lights_punctual":{
					"light":8
				}
			},
			"name":"Light.008",
			"rotation":[
				-0.28416624665260315,
				0.7269423007965088,
				0.34203389286994934,
				0.5232754945755005
			],
			"scale":[
				0.2202569991350174,
				0.2202570140361786,
				0.2202570140361786
			],
			"translation":[
				-4.539211750030518,
				0.25356271862983704,
				0.5490624308586121
			]
		},
		{
			"extensions":{
				"KHR_lights_punctual":{
					"light":9
				}
			},
			"name":"Light.009",
			"rotation":[
				-0.28416627645492554,
				0.7269423007965088,
				0.34203392267227173,
				0.5232754945755005
			],
			"translation":[
				-4.838687896728516,
				-2.33066463470459,
				1.5046055316925049
			]
		},
		{
			"extensions":{
				"KHR_lights_punctual":{
					"light":10
				}
			},
			"name":"Light.010",
			"rotation":[
				-0.28416627645492554,
				0.7269423007965088,
				0.34203392267227173,
				0.5232754945755005
			],
			"translation":[
				-4.831661224365234,
				-3.3536529541015625,
				-2.3989245891571045
			]
		},
		{
			"extensions":{
				"KHR_lights_punctual":{
					"light":11
				}
			},
			"name":"Light.011",
			"rotation":[
				-0.28416627645492554,
				0.7269423007965088,
				0.34203392267227173,
				0.5232754945755005
			],
			"translation":[
				-4.577042579650879,
				-4.767936706542969,
				0.963341236114502
			]
		},
		{
			"extensions":{
				"KHR_lights_punctual":{
					"light":12
				}
			},
			"name":"Light.012",
			"rotation":[
				-0.28416624665260315,
				0.7269423007965088,
				0.34203389286994934,
				0.5232754945755005
			],
			"scale":[
				0.2202569991350174,
				0.2202570140361786,
				0.2202570140361786
			],
			"translation":[
				-4.061664581298828,
				-3.9642856121063232,
				0.49767225980758667
			]
		},
		{
			"extensions":{
				"KHR_lights_punctual":{
					"light":13
				}
			},
			"name":"Light.013",
			"rotation":[
				-0.28416627645492554,
				0.7269423007965088,
				0.34203392267227173,
				0.5232754945755005
			],
			"translation":[
				-4.549548625946045,
				-5.651981353759766,
				-1.6438837051391602
			]
		},
		{
			"extensions":{
				"KHR_lights_punctual":{
					"light":14
				}
			},
			"name":"Light.014",
			"rotation":[
				-0.28416627645492554,
				0.7269423007965088,
				0.34203392267227173,
				0.5232754945755005
			],
			"translation":[
				-5.3965067863464355,
				2.253368377685547,
				0.17234623432159424
			]
		},
		{
			"extensions":{
				"KHR_lights_punctual":{
					"light":15
				}
			},
			"name":"Light.015",
			"rotation":[
				-0.28416627645492554,
				0.7269423007965088,
				0.34203392267227173,
				0.5232754945755005
			],
			"translation":[
				-5.566214084625244,
				3.715519428253174,
				-5.542368412017822
			]
		},
		{
			"extras":{
				"ant_landscape":{}
			},
			"mesh":4,
			"name":"eyes",
			"rotation":[
				0,
				0,
				0.7071068286895752,
				0.7071068286895752
			],
			"scale":[
				0.24668702483177185,
				0.24668702483177185,
				0.24668702483177185
			],
			"translation":[
				0.529880166053772,
				0.06638595461845398,
				0.4084196090698242
			]
		}
	],
	"materials":[
		{
			"doubleSided":true,
			"name":"Skin.002",
			"normalTexture":{
				"index":0
			},
			"pbrMetallicRoughness":{
				"baseColorTexture":{
					"index":1
				},
				"metallicRoughnessTexture":{
					"index":2
				}
			}
		},
		{
			"doubleSided":true,
			"name":"clothesColor",
			"pbrMetallicRoughness":{
				"baseColorFactor":[
					0.2371167689561844,
					0.4274177551269531,
					0.8000000715255737,
					1
				],
				"metallicFactor":0,
				"roughnessFactor":0.5039370059967041
			}
		},
		{
			"doubleSided":true,
			"name":"Hair",
			"pbrMetallicRoughness":{
				"baseColorFactor":[
					0.8000000715255737,
					0.05726125091314316,
					0.06766717880964279,
					1
				],
				"metallicFactor":0,
				"roughnessFactor":0.5035087466239929
			}
		},
		{
			"doubleSided":true,
			"name":"new_eye",
			"pbrMetallicRoughness":{
				"baseColorFactor":[
					0.800000011920929,
					0.800000011920929,
					0.800000011920929,
					1
				],
				"metallicFactor":0,
				"roughnessFactor":0
			}
		},
		{
			"doubleSided":true,
			"extensions":{
				"KHR_materials_transmission":{
					"transmissionFactor":1
				},
				"KHR_materials_ior":{
					"ior":1.4500000476837158
				}
			},
			"name":"iris_glass",
			"pbrMetallicRoughness":{
				"baseColorFactor":[
					0.800000011920929,
					0.800000011920929,
					0.800000011920929,
					1
				],
				"metallicFactor":0,
				"roughnessFactor":0
			}
		},
		{
			"doubleSided":true,
			"name":"new_iris",
			"normalTexture":{
				"index":3
			},
			"pbrMetallicRoughness":{
				"baseColorTexture":{
					"index":4
				},
				"metallicRoughnessTexture":{
					"index":5
				}
			}
		},
		{
			"doubleSided":true,
			"name":"pupil",
			"pbrMetallicRoughness":{
				"baseColorFactor":[
					0,
					0,
					0,
					1
				],
				"metallicFactor":0,
				"roughnessFactor":0
			}
		}
	],
	"meshes":[
		{
			"name":"remeshed_joined",
			"primitives":[
				{
					"attributes":{
						"POSITION":0,
						"TEXCOORD_0":1,
						"NORMAL":2
					},
					"indices":3,
					"material":0
				}
			]
		},
		{
			"name":"Sphere",
			"primitives":[
				{
					"attributes":{
						"POSITION":4,
						"NORMAL":5
					},
					"indices":6,
					"material":1
				}
			]
		},
		{
			"name":"Torus",
			"primitives":[
				{
					"attributes":{
						"COLOR_0":7,
						"POSITION":8,
						"NORMAL":9
					},
					"indices":10,
					"material":1
				}
			]
		},
		{
			"name":"Sphere.008",
			"primitives":[
				{
					"attributes":{
						"POSITION":11,
						"NORMAL":12
					},
					"indices":13,
					"material":2
				}
			]
		},
		{
			"name":"Sphere.038",
			"primitives":[
				{
					"attributes":{
						"POSITION":14,
						"TEXCOORD_0":15,
						"NORMAL":16,
						"TANGENT":17
					},
					"indices":18,
					"material":3
				},
				{
					"attributes":{
						"POSITION":19,
						"TEXCOORD_0":20,
						"NORMAL":21,
						"TANGENT":22
					},
					"indices":23,
					"material":4
				},
				{
					"attributes":{
						"POSITION":24,
						"TEXCOORD_0":25,
						"NORMAL":26,
						"TANGENT":27
					},
					"indices":28,
					"material":5
				},
				{
					"attributes":{
						"POSITION":29,
						"TEXCOORD_0":30,
						"NORMAL":31,
						"TANGENT":32
					},
					"indices":33,
					"material":6
				}
			]
		}
	],
	"textures":[
		{
			"sampler":0,
			"source":0
		},
		{
			"sampler":0,
			"source":1
		},
		{
			"sampler":0,
			"source":2
		},
		{
			"sampler":0,
			"source":3
		},
		{
			"sampler":0,
			"source":4
		},
		{
			"sampler":0,
			"source":5
		}
	],
	"images":[
		{
			"mimeType":"image/png",
			"name":"Skin_Normal",
			"uri":"Skin_Normal.png"
		},
		{
			"mimeType":"image/png",
			"name":"Skin_Base_color",
			"uri":"Skin_Base_color.png"
		},
		{
			"mimeType":"image/png",
			"name":"Skin_Metallic-Skin_Roughness",
			"uri":"Skin_Metallic-Skin_Roughness.png"
		},
		{
			"mimeType":"image/png",
			"name":"new_iris_Normal",
			"uri":"new_iris_Normal.png"
		},
		{
			"mimeType":"image/png",
			"name":"new_iris_Base_color",
			"uri":"new_iris_Base_color.png"
		},
		{
			"mimeType":"image/png",
			"name":"new_iris_Metallic-new_iris_Roughness",
			"uri":"new_iris_Metallic-new_iris_Roughness.png"
		}
	],
	"accessors":[
		{
			"bufferView":0,
			"componentType":5126,
			"count":48798,
			"max":[
				1.0494500398635864,
				1.4661999940872192,
				5.057519912719727
			],
			"min":[
				-0.9541625380516052,
				-1.4659500122070312,
				-1.173762321472168
			],
			"type":"VEC3"
		},
		{
			"bufferView":1,
			"componentType":5126,
			"count":48798,
			"type":"VEC2"
		},
		{
			"bufferView":2,
			"componentType":5126,
			"count":48798,
			"type":"VEC3"
		},
		{
			"bufferView":3,
			"componentType":5123,
			"count":285750,
			"type":"SCALAR"
		},
		{
			"bufferView":4,
			"componentType":5126,
			"count":6102,
			"max":[
				0.9495519995689392,
				0.9934154152870178,
				0.7418970465660095
			],
			"min":[
				-0.7798786163330078,
				-0.9950799942016602,
				-0.742031455039978
			],
			"type":"VEC3"
		},
		{
			"bufferView":5,
			"componentType":5126,
			"count":6102,
			"type":"VEC3"
		},
		{
			"bufferView":6,
			"componentType":5123,
			"count":36600,
			"type":"SCALAR"
		},
		{
			"bufferView":7,
			"componentType":5123,
			"count":8806,
			"normalized":true,
			"type":"VEC4"
		},
		{
			"bufferView":8,
			"componentType":5126,
			"count":8806,
			"max":[
				0.4190747141838074,
				0.3440173864364624,
				1.5238608121871948
			],
			"min":[
				-1.0247172117233276,
				-3.7503130435943604,
				-1.5147708654403687
			],
			"type":"VEC3"
		},
		{
			"bufferView":9,
			"componentType":5126,
			"count":8806,
			"type":"VEC3"
		},
		{
			"bufferView":10,
			"componentType":5123,
			"count":52848,
			"type":"SCALAR"
		},
		{
			"bufferView":11,
			"componentType":5126,
			"count":4228,
			"max":[
				0.6351356506347656,
				0.9207864999771118,
				1.0964298248291016
			],
			"min":[
				-1.128558874130249,
				-1.5214952230453491,
				-1.0719481706619263
			],
			"type":"VEC3"
		},
		{
			"bufferView":12,
			"componentType":5126,
			"count":4228,
			"type":"VEC3"
		},
		{
			"bufferView":13,
			"componentType":5123,
			"count":25356,
			"type":"SCALAR"
		},
		{
			"bufferView":14,
			"componentType":5126,
			"count":102112,
			"max":[
				0.9872310161590576,
				0.997576892375946,
				0.9872307181358337
			],
			"min":[
				-0.9872305393218994,
				-0.8314697742462158,
				-4.257639408111572
			],
			"type":"VEC3"
		},
		{
			"bufferView":15,
			"componentType":5126,
			"count":102112,
			"type":"VEC2"
		},
		{
			"bufferView":16,
			"componentType":5126,
			"count":102112,
			"type":"VEC3"
		},
		{
			"bufferView":17,
			"componentType":5126,
			"count":102112,
			"type":"VEC4"
		},
		{
			"bufferView":18,
			"componentType":5125,
			"count":577536,
			"type":"SCALAR"
		},
		{
			"bufferView":19,
			"componentType":5126,
			"count":22220,
			"max":[
				0.5935759544372559,
				-0.791743814945221,
				0.5935752391815186
			],
			"min":[
				-0.5935755968093872,
				-1.1093213558197021,
				-3.863985061645508
			],
			"type":"VEC3"
		},
		{
			"bufferView":20,
			"componentType":5126,
			"count":22220,
			"type":"VEC2"
		},
		{
			"bufferView":21,
			"componentType":5126,
			"count":22220,
			"type":"VEC3"
		},
		{
			"bufferView":22,
			"componentType":5126,
			"count":22220,
			"type":"VEC4"
		},
		{
			"bufferView":23,
			"componentType":5123,
			"count":116736,
			"type":"SCALAR"
		},
		{
			"bufferView":24,
			"componentType":5126,
			"count":13812,
			"max":[
				0.5791081786155701,
				-0.5638416409492493,
				0.5574915409088135
			],
			"min":[
				-0.5715165734291077,
				-0.7879461050033569,
				-3.863541603088379
			],
			"type":"VEC3"
		},
		{
			"bufferView":25,
			"componentType":5126,
			"count":13812,
			"type":"VEC2"
		},
		{
			"bufferView":26,
			"componentType":5126,
			"count":13812,
			"type":"VEC3"
		},
		{
			"bufferView":27,
			"componentType":5126,
			"count":13812,
			"type":"VEC4"
		},
		{
			"bufferView":28,
			"componentType":5123,
			"count":73728,
			"type":"SCALAR"
		},
		{
			"bufferView":29,
			"componentType":5126,
			"count":4412,
			"max":[
				0.16252410411834717,
				-0.5500921010971069,
				0.1409074068069458
			],
			"min":[
				-0.15493248403072357,
				-0.5638418793678284,
				-3.446957588195801
			],
			"type":"VEC3"
		},
		{
			"bufferView":30,
			"componentType":5126,
			"count":4412,
			"type":"VEC2"
		},
		{
			"bufferView":31,
			"componentType":5126,
			"count":4412,
			"type":"VEC3"
		},
		{
			"bufferView":32,
			"componentType":5126,
			"count":4412,
			"type":"VEC4"
		},
		{
			"bufferView":33,
			"componentType":5123,
			"count":18432,
			"type":"SCALAR"
		}
	],
	"bufferViews":[
		{
			"buffer":0,
			"byteLength":585576,
			"byteOffset":0,
			"target":34962
		},
		{
			"buffer":0,
			"byteLength":390384,
			"byteOffset":585576,
			"target":34962
		},
		{
			"buffer":0,
			"byteLength":585576,
			"byteOffset":975960,
			"target":34962
		},
		{
			"buffer":0,
			"byteLength":571500,
			"byteOffset":1561536,
			"target":34963
		},
		{
			"buffer":0,
			"byteLength":73224,
			"byteOffset":2133036,
			"target":34962
		},
		{
			"buffer":0,
			"byteLength":73224,
			"byteOffset":2206260,
			"target":34962
		},
		{
			"buffer":0,
			"byteLength":73200,
			"byteOffset":2279484,
			"target":34963
		},
		{
			"buffer":0,
			"byteLength":70448,
			"byteOffset":2352684,
			"target":34962
		},
		{
			"buffer":0,
			"byteLength":105672,
			"byteOffset":2423132,
			"target":34962
		},
		{
			"buffer":0,
			"byteLength":105672,
			"byteOffset":2528804,
			"target":34962
		},
		{
			"buffer":0,
			"byteLength":105696,
			"byteOffset":2634476,
			"target":34963
		},
		{
			"buffer":0,
			"byteLength":50736,
			"byteOffset":2740172,
			"target":34962
		},
		{
			"buffer":0,
			"byteLength":50736,
			"byteOffset":2790908,
			"target":34962
		},
		{
			"buffer":0,
			"byteLength":50712,
			"byteOffset":2841644,
			"target":34963
		},
		{
			"buffer":0,
			"byteLength":1225344,
			"byteOffset":2892356,
			"target":34962
		},
		{
			"buffer":0,
			"byteLength":816896,
			"byteOffset":4117700,
			"target":34962
		},
		{
			"buffer":0,
			"byteLength":1225344,
			"byteOffset":4934596,
			"target":34962
		},
		{
			"buffer":0,
			"byteLength":1633792,
			"byteOffset":6159940,
			"target":34962
		},
		{
			"buffer":0,
			"byteLength":2310144,
			"byteOffset":7793732,
			"target":34963
		},
		{
			"buffer":0,
			"byteLength":266640,
			"byteOffset":10103876,
			"target":34962
		},
		{
			"buffer":0,
			"byteLength":177760,
			"byteOffset":10370516,
			"target":34962
		},
		{
			"buffer":0,
			"byteLength":266640,
			"byteOffset":10548276,
			"target":34962
		},
		{
			"buffer":0,
			"byteLength":355520,
			"byteOffset":10814916,
			"target":34962
		},
		{
			"buffer":0,
			"byteLength":233472,
			"byteOffset":11170436,
			"target":34963
		},
		{
			"buffer":0,
			"byteLength":165744,
			"byteOffset":11403908,
			"target":34962
		},
		{
			"buffer":0,
			"byteLength":110496,
			"byteOffset":11569652,
			"target":34962
		},
		{
			"buffer":0,
			"byteLength":165744,
			"byteOffset":11680148,
			"target":34962
		},
		{
			"buffer":0,
			"byteLength":220992,
			"byteOffset":11845892,
			"target":34962
		},
		{
			"buffer":0,
			"byteLength":147456,
			"byteOffset":12066884,
			"target":34963
		},
		{
			"buffer":0,
			"byteLength":52944,
			"byteOffset":12214340,
			"target":34962
		},
		{
			"buffer":0,
			"byteLength":35296,
			"byteOffset":12267284,
			"target":34962
		},
		{
			"buffer":0,
			"byteLength":52944,
			"byteOffset":12302580,
			"target":34962
		},
		{
			"buffer":0,
			"byteLength":70592,
			"byteOffset":12355524,
			"target":34962
		},
		{
			"buffer":0,
			"byteLength":36864,
			"byteOffset":12426116,
			"target":34963
		}
	],
	"samplers":[
		{
			"magFilter":9729,
			"minFilter":9987
		}
	],
	"buffers":[
		{
			"byteLength":12462980,
			"uri":"eyes_test.bin"
		}
	]
}
