{
	"asset":{
		"generator":"Khronos glTF Blender I/O v4.0.44",
		"version":"2.0"
	},
	"extensionsUsed":[
		"KHR_materials_specular",
		"KHR_materials_ior"
	],
	"scene":0,
	"scenes":[
		{
			"name":"Scene",
			"nodes":[
				0
			]
		}
	],
	"nodes":[
		{
			"mesh":0,
			"name":"eye",
			"rotation":[
				0.7071068286895752,
				0,
				0,
				0.7071068286895752
			]
		}
	],
	"materials":[
		{
			"alphaMode":"BLEND",
			"doubleSided":true,
			"name":"Eye",
			"pbrMetallicRoughness":{
				"baseColorFactor":[
					0.800000011920929,
					0.800000011920929,
					0.800000011920929,
					1
				],
				"metallicFactor":0,
				"roughnessFactor":0.09923665225505829
			}
		},
		{
			"doubleSided":true,
			"extensions":{
				"KHR_materials_specular":{
					"specularFactor":0
				},
				"KHR_materials_ior":{
					"ior":1.4500000476837158
				}
			},
			"name":"iris",
			"pbrMetallicRoughness":{
				"metallicFactor":0
			}
		}
	],
	"meshes":[
		{
			"name":"Mesh",
			"primitives":[
				{
					"attributes":{
						"POSITION":0,
						"NORMAL":1,
						"TEXCOORD_0":2
					},
					"indices":3,
					"material":0
				},
				{
					"attributes":{
						"POSITION":4,
						"NORMAL":5,
						"TEXCOORD_0":6
					},
					"indices":7,
					"material":1
				}
			]
		}
	],
	"accessors":[
		{
			"bufferView":0,
			"componentType":5126,
			"count":8248,
			"max":[
				0.9872310161590576,
				1.0436824560165405,
				0.9872307181358337
			],
			"min":[
				-0.9872304201126099,
				-0.9975767135620117,
				-0.9872304201126099
			],
			"type":"VEC3"
		},
		{
			"bufferView":1,
			"componentType":5126,
			"count":8248,
			"type":"VEC3"
		},
		{
			"bufferView":2,
			"componentType":5126,
			"count":8248,
			"type":"VEC2"
		},
		{
			"bufferView":3,
			"componentType":5123,
			"count":45312,
			"type":"SCALAR"
		},
		{
			"bufferView":4,
			"componentType":5126,
			"count":1139,
			"max":[
				0.563905656337738,
				0.8140667676925659,
				0.5596233010292053
			],
			"min":[
				-0.5537341833114624,
				0.5769174695014954,
				-0.5487573742866516
			],
			"type":"VEC3"
		},
		{
			"bufferView":5,
			"componentType":5126,
			"count":1139,
			"type":"VEC3"
		},
		{
			"bufferView":6,
			"componentType":5126,
			"count":1139,
			"type":"VEC2"
		},
		{
			"bufferView":7,
			"componentType":5123,
			"count":6144,
			"type":"SCALAR"
		}
	],
	"bufferViews":[
		{
			"buffer":0,
			"byteLength":98976,
			"byteOffset":0,
			"target":34962
		},
		{
			"buffer":0,
			"byteLength":98976,
			"byteOffset":98976,
			"target":34962
		},
		{
			"buffer":0,
			"byteLength":65984,
			"byteOffset":197952,
			"target":34962
		},
		{
			"buffer":0,
			"byteLength":90624,
			"byteOffset":263936,
			"target":34963
		},
		{
			"buffer":0,
			"byteLength":13668,
			"byteOffset":354560,
			"target":34962
		},
		{
			"buffer":0,
			"byteLength":13668,
			"byteOffset":368228,
			"target":34962
		},
		{
			"buffer":0,
			"byteLength":9112,
			"byteOffset":381896,
			"target":34962
		},
		{
			"buffer":0,
			"byteLength":12288,
			"byteOffset":391008,
			"target":34963
		}
	],
	"buffers":[
		{
			"byteLength":403296,
			"uri":"blueEyes.bin"
		}
	]
}
