{
	"asset":{
		"generator":"Khronos glTF Blender I/O v3.5.30",
		"version":"2.0"
	},
	"extensionsUsed":[
		"KHR_materials_specular",
		"KHR_materials_ior"
	],
	"scene":0,
	"scenes":[
		{
			"extras":{
				"remesher":0,
				"deterministic":0,
				"dominant":0,
				"boundaries":0
			},
			"name":"Scene",
			"nodes":[
				0,
				1,
				2,
				3,
				4,
				5,
				6,
				7,
				8
			]
		}
	],
	"nodes":[
		{
			"camera":0,
			"name":"Camera",
			"rotation":[
				-0.03938838094472885,
				0.7157753705978394,
				0.040487147867679596,
				0.6960424184799194
			],
			"translation":[
				15.803504943847656,
				0.4500177502632141,
				0.11983370780944824
			]
		},
		{
			"extras":{
				"ant_landscape":{}
			},
			"mesh":0,
			"name":"eyebrow",
			"rotation":[
				-0.7054429650306702,
				-0.04847978055477142,
				0.7054429054260254,
				0.04847978800535202
			],
			"scale":[
				0.09028904139995575,
				0.055166926234960556,
				0.09083738923072815
			],
			"translation":[
				0.841932475566864,
				0.5710410475730896,
				-0.3541731834411621
			]
		},
		{
			"camera":1,
			"name":"Camera.001",
			"rotation":[
				-0.20997299253940582,
				0.3857799470424652,
				0.09062844514846802,
				0.8937962055206299
			],
			"translation":[
				7.358891487121582,
				4.958309173583984,
				6.925790786743164
			]
		},
		{
			"extras":{
				"ant_landscape":{}
			},
			"mesh":1,
			"name":"remeshed_joined",
			"rotation":[
				0.7071068286895752,
				0,
				0,
				0.7071068286895752
			]
		},
		{
			"extras":{
				"ant_landscape":{}
			},
			"mesh":2,
			"name":"shirt_base",
			"scale":[
				0.5388562083244324,
				0.8187790513038635,
				0.8187790513038635
			],
			"translation":[
				-0.12244121730327606,
				-2.0106818675994873,
				0
			]
		},
		{
			"mesh":3,
			"name":"pants_jogging",
			"scale":[
				0.4881678521633148,
				0.5117413401603699,
				0.4881678521633148
			],
			"translation":[
				0,
				-2.8027241230010986,
				0
			]
		},
		{
			"extras":{
				"ant_landscape":{}
			},
			"mesh":4,
			"name":"eye.002",
			"rotation":[
				0.486713171005249,
				0.5129427909851074,
				-0.5129427909851074,
				0.48671314120292664
			],
			"scale":[
				0.25139373540878296,
				0.25139373540878296,
				0.25139373540878296
			],
			"translation":[
				0.5239506363868713,
				0.06691455841064453,
				0.40965354442596436
			]
		},
		{
			"extras":{
				"ant_landscape":{}
			},
			"mesh":5,
			"name":"eye.003",
			"rotation":[
				-0.5129427313804626,
				0.48671311140060425,
				0.486713171005249,
				0.5129428505897522
			],
			"scale":[
				-0.25139373540878296,
				-0.25139373540878296,
				-0.25139373540878296
			],
			"translation":[
				0.5239506363868713,
				0.06691455841064453,
				-0.3980255126953125
			]
		},
		{
			"extras":{
				"ant_landscape":{}
			},
			"mesh":6,
			"name":"hair_midlength",
			"scale":[
				1.1045958995819092,
				1.1045958995819092,
				1.1045958995819092
			],
			"translation":[
				0,
				0.2892959713935852,
				0
			]
		}
	],
	"cameras":[
		{
			"name":"Camera",
			"perspective":{
				"aspectRatio":0.5625,
				"yfov":0.691111147403717,
				"zfar":100,
				"znear":0.10000000149011612
			},
			"type":"perspective"
		},
		{
			"name":"Camera.001",
			"perspective":{
				"aspectRatio":0.5625,
				"yfov":0.691111147403717,
				"zfar":100,
				"znear":0.10000000149011612
			},
			"type":"perspective"
		}
	],
	"materials":[
		{
			"doubleSided":true,
			"name":"eyebrows",
			"pbrMetallicRoughness":{
				"baseColorFactor":[
					0.22025755047798157,
					0.09371154010295868,
					0.04158414527773857,
					1
				],
				"metallicFactor":0,
				"roughnessFactor":0.5
			}
		},
		{
			"doubleSided":true,
			"name":"Skin.002",
			"normalTexture":{
				"index":0
			},
			"pbrMetallicRoughness":{
				"baseColorTexture":{
					"index":1
				},
				"metallicRoughnessTexture":{
					"index":2
				}
			}
		},
		{
			"doubleSided":true,
			"name":"clothesColor",
			"pbrMetallicRoughness":{
				"baseColorFactor":[
					0.008671602234244347,
					0.6274752020835876,
					0.8000000715255737,
					1
				],
				"metallicFactor":0,
				"roughnessFactor":0.5
			}
		},
		{
			"alphaMode":"BLEND",
			"doubleSided":true,
			"name":"Eye.001",
			"pbrMetallicRoughness":{
				"baseColorFactor":[
					0.800000011920929,
					0.800000011920929,
					0.800000011920929,
					1
				],
				"metallicFactor":0,
				"roughnessFactor":0.09923665225505829
			}
		},
		{
			"doubleSided":true,
			"extensions":{
				"KHR_materials_specular":{
					"specularColorFactor":[
						0,
						0,
						0
					]
				},
				"KHR_materials_ior":{
					"ior":1.4500000476837158
				}
			},
			"name":"iris.001",
			"pbrMetallicRoughness":{
				"metallicFactor":0
			}
		},
		{
			"doubleSided":true,
			"name":"Hair",
			"pbrMetallicRoughness":{
				"baseColorFactor":[
					0.8000000715255737,
					0.05726125091314316,
					0.06766717880964279,
					1
				],
				"metallicFactor":0,
				"roughnessFactor":0.5035087466239929
			}
		}
	],
	"meshes":[
		{
			"name":"Cube.002",
			"primitives":[
				{
					"attributes":{
						"POSITION":0,
						"NORMAL":1
					},
					"indices":2,
					"material":0
				}
			]
		},
		{
			"name":"remeshed_joined",
			"primitives":[
				{
					"attributes":{
						"POSITION":3,
						"TEXCOORD_0":4,
						"NORMAL":5
					},
					"indices":6,
					"material":1
				}
			]
		},
		{
			"name":"Sphere",
			"primitives":[
				{
					"attributes":{
						"POSITION":7,
						"NORMAL":8
					},
					"indices":9,
					"material":2
				}
			]
		},
		{
			"name":"Torus",
			"primitives":[
				{
					"attributes":{
						"COLOR_0":10,
						"POSITION":11,
						"NORMAL":12
					},
					"indices":13,
					"material":2
				}
			]
		},
		{
			"name":"Sphere.001",
			"primitives":[
				{
					"attributes":{
						"POSITION":14,
						"TEXCOORD_0":15,
						"NORMAL":16,
						"TANGENT":17
					},
					"indices":18,
					"material":3
				},
				{
					"attributes":{
						"POSITION":19,
						"TEXCOORD_0":20,
						"NORMAL":21,
						"TANGENT":22
					},
					"indices":23,
					"material":4
				}
			]
		},
		{
			"name":"Sphere.030",
			"primitives":[
				{
					"attributes":{
						"POSITION":24,
						"TEXCOORD_0":25,
						"NORMAL":26,
						"TANGENT":27
					},
					"indices":18,
					"material":3
				},
				{
					"attributes":{
						"POSITION":28,
						"TEXCOORD_0":29,
						"NORMAL":30,
						"TANGENT":31
					},
					"indices":23,
					"material":4
				}
			]
		},
		{
			"name":"Sphere.008",
			"primitives":[
				{
					"attributes":{
						"POSITION":32,
						"NORMAL":33
					},
					"indices":34,
					"material":5
				}
			]
		}
	],
	"textures":[
		{
			"sampler":0,
			"source":0
		},
		{
			"sampler":0,
			"source":1
		},
		{
			"sampler":0,
			"source":2
		}
	],
	"images":[
		{
			"mimeType":"image/png",
			"name":"Skin_Normal",
			"uri":"Skin_Normal.png"
		},
		{
			"mimeType":"image/png",
			"name":"Skin_Base_color",
			"uri":"Skin_Base_color.png"
		},
		{
			"mimeType":"image/png",
			"name":"Skin_Metallic-Skin_Roughness",
			"uri":"Skin_Metallic-Skin_Roughness.png"
		}
	],
	"accessors":[
		{
			"bufferView":0,
			"componentType":5126,
			"count":39727,
			"max":[
				3.567110061645508,
				3.8478879928588867,
				2.6339516639709473
			],
			"min":[
				-11.811206817626953,
				-1.6626901626586914,
				0.5117597579956055
			],
			"type":"VEC3"
		},
		{
			"bufferView":1,
			"componentType":5126,
			"count":39727,
			"type":"VEC3"
		},
		{
			"bufferView":2,
			"componentType":5123,
			"count":49704,
			"type":"SCALAR"
		},
		{
			"bufferView":3,
			"componentType":5126,
			"count":48798,
			"max":[
				1.0494500398635864,
				1.4661999940872192,
				5.057519912719727
			],
			"min":[
				-1.0862799882888794,
				-1.4659500122070312,
				-1.2482500076293945
			],
			"type":"VEC3"
		},
		{
			"bufferView":4,
			"componentType":5126,
			"count":48798,
			"type":"VEC2"
		},
		{
			"bufferView":5,
			"componentType":5126,
			"count":48798,
			"type":"VEC3"
		},
		{
			"bufferView":6,
			"componentType":5123,
			"count":285750,
			"type":"SCALAR"
		},
		{
			"bufferView":7,
			"componentType":5126,
			"count":6102,
			"max":[
				0.9495519995689392,
				0.9934154152870178,
				0.7418970465660095
			],
			"min":[
				-0.7798786163330078,
				-0.9950799942016602,
				-0.742031455039978
			],
			"type":"VEC3"
		},
		{
			"bufferView":8,
			"componentType":5126,
			"count":6102,
			"type":"VEC3"
		},
		{
			"bufferView":9,
			"componentType":5123,
			"count":36600,
			"type":"SCALAR"
		},
		{
			"bufferView":10,
			"componentType":5123,
			"count":8806,
			"normalized":true,
			"type":"VEC4"
		},
		{
			"bufferView":11,
			"componentType":5126,
			"count":8806,
			"max":[
				0.4190747141838074,
				0.3440173864364624,
				1.5238608121871948
			],
			"min":[
				-1.0247172117233276,
				-3.7503130435943604,
				-1.5147708654403687
			],
			"type":"VEC3"
		},
		{
			"bufferView":12,
			"componentType":5126,
			"count":8806,
			"type":"VEC3"
		},
		{
			"bufferView":13,
			"componentType":5123,
			"count":52848,
			"type":"SCALAR"
		},
		{
			"bufferView":14,
			"componentType":5126,
			"count":9252,
			"max":[
				0.9872310161590576,
				1.0436824560165405,
				0.9872307181358337
			],
			"min":[
				-0.9872304201126099,
				-0.9975767135620117,
				-0.9872304201126099
			],
			"type":"VEC3"
		},
		{
			"bufferView":15,
			"componentType":5126,
			"count":9252,
			"type":"VEC2"
		},
		{
			"bufferView":16,
			"componentType":5126,
			"count":9252,
			"type":"VEC3"
		},
		{
			"bufferView":17,
			"componentType":5126,
			"count":9252,
			"type":"VEC4"
		},
		{
			"bufferView":18,
			"componentType":5123,
			"count":45312,
			"type":"SCALAR"
		},
		{
			"bufferView":19,
			"componentType":5126,
			"count":1936,
			"max":[
				0.563905656337738,
				0.8140667676925659,
				0.5596233010292053
			],
			"min":[
				-0.5537341833114624,
				0.5769174695014954,
				-0.5487573742866516
			],
			"type":"VEC3"
		},
		{
			"bufferView":20,
			"componentType":5126,
			"count":1936,
			"type":"VEC2"
		},
		{
			"bufferView":21,
			"componentType":5126,
			"count":1936,
			"type":"VEC3"
		},
		{
			"bufferView":22,
			"componentType":5126,
			"count":1936,
			"type":"VEC4"
		},
		{
			"bufferView":23,
			"componentType":5123,
			"count":6144,
			"type":"SCALAR"
		},
		{
			"bufferView":24,
			"componentType":5126,
			"count":9252,
			"max":[
				0.9872310161590576,
				1.0436824560165405,
				0.9872307181358337
			],
			"min":[
				-0.9872304201126099,
				-0.9975767135620117,
				-0.9872304201126099
			],
			"type":"VEC3"
		},
		{
			"bufferView":25,
			"componentType":5126,
			"count":9252,
			"type":"VEC2"
		},
		{
			"bufferView":26,
			"componentType":5126,
			"count":9252,
			"type":"VEC3"
		},
		{
			"bufferView":27,
			"componentType":5126,
			"count":9252,
			"type":"VEC4"
		},
		{
			"bufferView":28,
			"componentType":5126,
			"count":1936,
			"max":[
				0.563905656337738,
				0.8140667676925659,
				0.5596233010292053
			],
			"min":[
				-0.5537341833114624,
				0.5769174695014954,
				-0.5487573742866516
			],
			"type":"VEC3"
		},
		{
			"bufferView":29,
			"componentType":5126,
			"count":1936,
			"type":"VEC2"
		},
		{
			"bufferView":30,
			"componentType":5126,
			"count":1936,
			"type":"VEC3"
		},
		{
			"bufferView":31,
			"componentType":5126,
			"count":1936,
			"type":"VEC4"
		},
		{
			"bufferView":32,
			"componentType":5126,
			"count":4228,
			"max":[
				0.6351356506347656,
				0.9207864999771118,
				1.0964298248291016
			],
			"min":[
				-1.128558874130249,
				-1.5214952230453491,
				-1.0719481706619263
			],
			"type":"VEC3"
		},
		{
			"bufferView":33,
			"componentType":5126,
			"count":4228,
			"type":"VEC3"
		},
		{
			"bufferView":34,
			"componentType":5123,
			"count":25356,
			"type":"SCALAR"
		}
	],
	"bufferViews":[
		{
			"buffer":0,
			"byteLength":476724,
			"byteOffset":0,
			"target":34962
		},
		{
			"buffer":0,
			"byteLength":476724,
			"byteOffset":476724,
			"target":34962
		},
		{
			"buffer":0,
			"byteLength":99408,
			"byteOffset":953448,
			"target":34963
		},
		{
			"buffer":0,
			"byteLength":585576,
			"byteOffset":1052856,
			"target":34962
		},
		{
			"buffer":0,
			"byteLength":390384,
			"byteOffset":1638432,
			"target":34962
		},
		{
			"buffer":0,
			"byteLength":585576,
			"byteOffset":2028816,
			"target":34962
		},
		{
			"buffer":0,
			"byteLength":571500,
			"byteOffset":2614392,
			"target":34963
		},
		{
			"buffer":0,
			"byteLength":73224,
			"byteOffset":3185892,
			"target":34962
		},
		{
			"buffer":0,
			"byteLength":73224,
			"byteOffset":3259116,
			"target":34962
		},
		{
			"buffer":0,
			"byteLength":73200,
			"byteOffset":3332340,
			"target":34963
		},
		{
			"buffer":0,
			"byteLength":70448,
			"byteOffset":3405540,
			"target":34962
		},
		{
			"buffer":0,
			"byteLength":105672,
			"byteOffset":3475988,
			"target":34962
		},
		{
			"buffer":0,
			"byteLength":105672,
			"byteOffset":3581660,
			"target":34962
		},
		{
			"buffer":0,
			"byteLength":105696,
			"byteOffset":3687332,
			"target":34963
		},
		{
			"buffer":0,
			"byteLength":111024,
			"byteOffset":3793028,
			"target":34962
		},
		{
			"buffer":0,
			"byteLength":74016,
			"byteOffset":3904052,
			"target":34962
		},
		{
			"buffer":0,
			"byteLength":111024,
			"byteOffset":3978068,
			"target":34962
		},
		{
			"buffer":0,
			"byteLength":148032,
			"byteOffset":4089092,
			"target":34962
		},
		{
			"buffer":0,
			"byteLength":90624,
			"byteOffset":4237124,
			"target":34963
		},
		{
			"buffer":0,
			"byteLength":23232,
			"byteOffset":4327748,
			"target":34962
		},
		{
			"buffer":0,
			"byteLength":15488,
			"byteOffset":4350980,
			"target":34962
		},
		{
			"buffer":0,
			"byteLength":23232,
			"byteOffset":4366468,
			"target":34962
		},
		{
			"buffer":0,
			"byteLength":30976,
			"byteOffset":4389700,
			"target":34962
		},
		{
			"buffer":0,
			"byteLength":12288,
			"byteOffset":4420676,
			"target":34963
		},
		{
			"buffer":0,
			"byteLength":111024,
			"byteOffset":4432964,
			"target":34962
		},
		{
			"buffer":0,
			"byteLength":74016,
			"byteOffset":4543988,
			"target":34962
		},
		{
			"buffer":0,
			"byteLength":111024,
			"byteOffset":4618004,
			"target":34962
		},
		{
			"buffer":0,
			"byteLength":148032,
			"byteOffset":4729028,
			"target":34962
		},
		{
			"buffer":0,
			"byteLength":23232,
			"byteOffset":4877060,
			"target":34962
		},
		{
			"buffer":0,
			"byteLength":15488,
			"byteOffset":4900292,
			"target":34962
		},
		{
			"buffer":0,
			"byteLength":23232,
			"byteOffset":4915780,
			"target":34962
		},
		{
			"buffer":0,
			"byteLength":30976,
			"byteOffset":4939012,
			"target":34962
		},
		{
			"buffer":0,
			"byteLength":50736,
			"byteOffset":4969988,
			"target":34962
		},
		{
			"buffer":0,
			"byteLength":50736,
			"byteOffset":5020724,
			"target":34962
		},
		{
			"buffer":0,
			"byteLength":50712,
			"byteOffset":5071460,
			"target":34963
		}
	],
	"samplers":[
		{
			"magFilter":9729,
			"minFilter":9987
		}
	],
	"buffers":[
		{
			"byteLength":5122172,
			"uri":"lightTest.bin"
		}
	]
}
